<?xml version="1.0" standalone="no"?>
<!DOCTYPE svg PUBLIC "-//W3C//DTD SVG 20010904//EN"
 "http://www.w3.org/TR/2001/REC-SVG-20010904/DTD/svg10.dtd">
<svg version="1.0" xmlns="http://www.w3.org/2000/svg"
 width="1152.000000pt" height="1152.000000pt" viewBox="0 0 1152.000000 1152.000000"
 preserveAspectRatio="xMidYMid meet">
<metadata>
Created by potrace 1.11, written by Peter Selinger 2001-2013
</metadata>
<g transform="translate(0.000000,1152.000000) scale(0.100000,-0.100000)"
fill="#000000" stroke="none">
<path d="M0 5760 l0 -4320 5760 0 5760 0 0 4320 0 4320 -5760 0 -5760 0 0
-4320z m6300 3875 c30 -8 87 -17 125 -21 39 -3 99 -12 135 -21 36 -8 106 -23
155 -33 87 -18 175 -49 455 -163 175 -71 267 -118 363 -183 42 -30 80 -54 83
-54 8 0 155 -100 188 -129 16 -14 48 -42 70 -61 23 -20 59 -49 81 -65 41 -30
56 -46 90 -101 11 -18 47 -67 80 -108 76 -96 177 -237 212 -296 14 -25 44 -68
65 -97 22 -28 54 -80 72 -115 18 -34 46 -85 61 -112 40 -69 108 -252 156 -421
64 -224 109 -598 109 -910 0 -186 -15 -298 -65 -480 -19 -71 -49 -184 -66
-250 -45 -175 -77 -272 -114 -340 -18 -33 -43 -85 -56 -115 -26 -61 -109 -199
-146 -244 -13 -16 -22 -35 -19 -42 3 -8 -1 -14 -10 -14 -8 0 -19 -10 -24 -22
-5 -13 -26 -41 -47 -63 -20 -22 -38 -43 -38 -47 0 -4 -10 -15 -22 -23 -13 -9
-23 -21 -23 -27 0 -7 6 -6 15 2 12 10 15 9 15 -5 0 -15 2 -16 17 -4 15 13 16
11 10 -13 -10 -39 7 -43 36 -8 14 16 28 30 32 30 8 0 50 -46 84 -90 14 -19 34
-44 44 -54 9 -11 17 -23 17 -27 0 -4 18 -29 40 -54 22 -26 58 -72 81 -103 22
-31 66 -91 99 -132 33 -41 60 -82 60 -90 0 -15 -109 -112 -180 -160 -28 -19
-109 -85 -176 -145 -57 -50 -317 -238 -394 -284 -36 -21 -110 -72 -165 -112
-95 -69 -449 -259 -484 -259 -9 0 -61 -17 -116 -36 -181 -64 -326 -107 -435
-129 -36 -8 -95 -21 -131 -29 -67 -16 -296 -40 -536 -56 -139 -10 -230 -8
-379 9 -49 5 -97 9 -105 9 -84 -5 -180 4 -193 18 -9 8 -53 21 -98 28 -91 14
-206 42 -253 61 -39 16 -154 52 -185 59 -48 9 -93 25 -117 41 -13 9 -82 36
-153 60 -114 39 -208 83 -435 203 -62 33 -216 145 -299 219 -27 24 -54 40 -60
36 -6 -3 -8 -3 -4 1 3 4 -40 49 -95 99 -205 185 -382 368 -472 489 -11 14 -48
63 -82 107 -35 45 -63 86 -63 90 0 5 25 35 56 68 31 32 84 89 118 128 64 73
291 305 299 305 2 0 18 -28 35 -63 17 -35 43 -76 57 -93 14 -16 59 -78 100
-139 79 -116 155 -208 155 -187 0 17 17 15 24 -4 3 -8 2 -12 -4 -9 -21 13 -8
-12 26 -50 122 -136 176 -186 281 -258 59 -40 134 -97 143 -107 3 -3 34 -24
70 -47 75 -46 145 -80 245 -116 39 -13 107 -43 153 -65 98 -48 327 -123 467
-153 55 -11 154 -32 220 -46 95 -20 158 -26 308 -30 194 -5 308 2 567 38 190
26 258 41 420 95 133 44 491 211 554 259 17 12 56 35 86 50 69 35 200 126 254
178 22 21 52 47 66 56 58 38 197 147 239 186 26 24 59 54 76 67 56 43 63 53
48 67 -13 11 -18 3 -14 -21 0 -5 -3 -8 -8 -8 -18 0 -19 15 -2 36 14 17 19 19
29 7 17 -17 28 -17 36 2 3 8 -2 21 -10 27 -9 7 -23 20 -32 28 -14 13 -20 11
-59 -29 -40 -41 -53 -58 -35 -48 4 3 12 0 18 -7 8 -9 7 -16 -4 -26 -14 -13
-15 -12 -10 2 12 29 -22 30 -47 0 -35 -39 -31 -51 5 -17 17 16 30 24 30 18 0
-6 -7 -16 -15 -23 -8 -7 -15 -16 -15 -21 0 -5 7 -9 15 -9 21 0 19 -13 -6 -28
-19 -12 -20 -11 -14 7 8 27 -11 27 -25 1 -6 -11 -16 -17 -22 -14 -8 5 -9 1 -5
-10 6 -14 3 -17 -9 -12 -8 3 -20 6 -26 6 -6 0 -1 9 12 20 12 11 26 18 29 15 4
-2 7 5 8 15 2 21 2 21 -76 -46 -30 -25 -89 -71 -185 -144 -11 -8 -43 -36 -70
-61 -28 -25 -71 -59 -96 -76 -99 -66 -160 -103 -171 -103 -6 0 -23 -8 -37 -19
-15 -10 -88 -50 -162 -88 -74 -39 -160 -84 -191 -101 -30 -17 -78 -36 -105
-42 -27 -6 -98 -26 -159 -44 -143 -44 -197 -56 -243 -56 -20 0 -98 -11 -172
-24 -234 -41 -364 -51 -513 -37 -73 7 -154 17 -182 22 -27 6 -79 16 -115 23
-36 8 -85 21 -110 31 -25 9 -76 25 -115 35 -63 16 -280 88 -330 109 -11 5 -51
21 -90 35 -38 15 -86 38 -105 50 -19 13 -55 33 -80 45 -25 12 -61 32 -81 44
-20 12 -58 35 -85 51 -27 16 -57 36 -67 44 -9 9 -39 29 -66 46 -156 99 -191
130 -364 318 -66 73 -132 144 -145 158 -12 14 -42 50 -65 80 -22 30 -64 80
-92 110 -58 63 -168 270 -147 277 6 3 12 9 12 14 0 5 -6 9 -12 9 -16 0 -146
249 -183 350 -15 41 -31 80 -35 85 -4 6 -13 33 -20 60 -7 28 -23 86 -35 130
-53 186 -70 358 -69 695 1 179 5 289 13 315 6 22 23 107 36 188 14 82 30 157
35 167 6 10 10 29 10 43 0 13 6 43 14 68 7 24 18 65 25 92 13 55 192 422 221
452 11 12 20 26 20 32 0 6 19 39 43 74 24 35 56 87 71 114 16 28 45 70 65 95
21 25 54 72 74 106 20 34 55 79 77 100 22 21 61 65 87 96 25 32 67 70 92 85
25 15 70 53 100 85 30 32 78 73 105 90 28 17 54 36 59 44 4 7 42 32 85 55 42
24 131 75 198 115 66 39 131 75 145 78 13 4 45 18 71 32 46 24 83 38 298 111
172 59 216 71 320 88 52 9 111 21 130 27 35 11 264 23 495 26 79 1 139 -3 175
-13z m-2904 -1752 c-8 -15 -15 -22 -16 -15 0 14 22 53 28 47 2 -2 -3 -16 -12
-32z m4784 -2853 c18 -12 2 -12 -25 0 -13 6 -15 9 -5 9 8 0 22 -4 30 -9z m-30
-15 c0 -3 -9 -14 -21 -26 -26 -26 -39 -16 -14 11 17 19 35 26 35 15z m60 -9
c0 -3 -4 -8 -10 -11 -5 -3 -10 -1 -10 4 0 6 5 11 10 11 6 0 10 -2 10 -4z m-80
-60 c0 -2 -8 -10 -17 -17 -16 -13 -17 -12 -4 4 13 16 21 21 21 13z m-217 -141
c-18 -25 -33 -32 -33 -16 0 7 37 39 48 40 2 1 -5 -10 -15 -24z m-4793 -81 c29
-41 59 -78 64 -82 13 -8 74 -86 98 -122 30 -47 126 -148 239 -251 63 -57 132
-122 154 -145 22 -22 65 -60 95 -84 30 -24 64 -53 74 -63 23 -23 235 -181 256
-190 8 -4 35 -19 60 -33 156 -88 360 -181 480 -219 30 -9 80 -30 110 -45 31
-16 118 -45 194 -64 75 -20 159 -44 184 -55 67 -26 130 -40 235 -51 51 -5 106
-14 124 -19 17 -5 34 -7 37 -4 3 3 12 1 19 -5 44 -37 585 -50 772 -19 55 9
165 24 245 33 146 17 209 30 375 79 114 34 151 46 250 84 44 17 90 31 102 31
13 0 23 4 23 9 0 5 21 14 48 20 64 16 374 173 442 225 56 42 158 113 188 131
76 45 321 230 462 349 36 30 99 81 140 112 41 31 96 77 122 102 40 38 49 43
63 32 8 -7 15 -18 15 -25 0 -11 -121 -114 -209 -179 -14 -11 -55 -45 -91 -77
-231 -200 -518 -420 -680 -520 -36 -22 -87 -56 -115 -75 -54 -38 -185 -107
-225 -119 -14 -4 -52 -20 -85 -35 -83 -39 -211 -87 -265 -99 -25 -6 -79 -21
-122 -35 -175 -57 -488 -112 -733 -127 -218 -14 -653 0 -765 25 -36 8 -121 26
-190 40 -214 44 -329 78 -369 107 -14 10 -87 39 -161 63 -74 25 -180 63 -235
86 -55 23 -117 48 -138 56 -21 8 -55 25 -77 39 -22 14 -75 43 -118 66 -42 22
-111 61 -152 87 -109 68 -359 271 -477 387 -56 55 -125 122 -155 148 -29 27
-73 73 -98 103 -25 29 -107 119 -183 198 l-138 145 22 30 c13 17 25 31 29 31
3 0 30 -34 60 -76z m4695 6 c-3 -5 -12 -10 -18 -10 -7 0 -6 4 3 10 19 12 23
12 15 0z m-30 -58 c-3 -3 -11 0 -18 7 -9 10 -8 11 6 5 10 -3 15 -9 12 -12z
m-4770 -79 c35 -38 44 -66 25 -78 -29 -18 -137 -267 -235 -540 -23 -66 -53
-147 -66 -180 l-24 -60 -49 -3 -49 -3 6 35 c3 20 21 71 40 113 19 43 49 125
67 183 18 58 49 141 70 185 20 44 42 97 49 118 7 20 16 37 21 37 5 0 16 24 26
53 21 64 71 177 78 177 3 0 21 -17 41 -37z m211 -238 c16 -21 64 -77 107 -122
42 -46 77 -89 77 -96 0 -8 -27 -76 -61 -153 -34 -76 -78 -187 -99 -246 -21
-60 -48 -123 -59 -141 -11 -18 -36 -79 -55 -136 l-34 -102 -11 51 c-6 28 -11
72 -11 97 0 52 -36 212 -53 232 -9 10 -30 12 -95 7 l-83 -7 19 38 c11 21 34
81 52 133 33 98 92 257 137 370 14 36 39 86 55 112 l30 48 27 -23 c16 -12 41
-40 57 -62z m5615 -38 c9 -23 24 -67 34 -97 10 -30 24 -64 31 -75 19 -30 104
-234 104 -249 0 -14 41 -116 86 -214 13 -29 24 -59 24 -68 0 -8 7 -29 16 -45
8 -17 14 -34 12 -38 -5 -11 -88 9 -88 21 0 15 -55 159 -88 228 -53 115 -71
159 -107 265 -20 61 -52 145 -71 188 l-34 78 28 24 c15 13 29 24 32 25 3 0 12
-19 21 -43z m-154 -144 c12 -32 28 -84 34 -115 7 -32 15 -58 19 -58 4 0 12
-19 19 -42 7 -24 28 -74 47 -112 19 -39 34 -77 34 -85 0 -9 6 -28 14 -43 8
-15 17 -42 21 -60 4 -18 10 -35 14 -38 3 -3 12 -16 19 -29 l14 -24 -79 9
c-138 14 -132 16 -154 -41 -11 -27 -29 -88 -41 -135 -24 -98 -33 -113 -42 -73
-4 15 -16 46 -26 68 -10 22 -28 65 -40 95 -42 105 -63 155 -80 190 -9 19 -30
71 -45 115 -30 88 -39 113 -57 151 -12 24 -9 29 33 67 25 23 61 53 79 67 19
14 68 53 109 88 41 34 78 62 81 62 3 0 15 -26 27 -57z m-5108 -163 c23 -19 58
-48 77 -64 35 -29 42 -52 24 -84 -17 -32 -140 -291 -140 -297 0 -5 -44 -106
-117 -270 -20 -44 -42 -104 -50 -134 -8 -30 -32 -89 -52 -130 -21 -42 -60
-135 -87 -208 -26 -73 -50 -130 -52 -128 -3 2 -11 80 -19 172 -8 92 -17 190
-20 216 -5 47 11 130 28 153 5 6 16 30 24 54 9 24 22 51 29 60 15 16 56 131
56 155 0 8 4 15 9 15 5 0 12 10 16 23 7 26 21 58 120 285 42 96 80 185 86 199
11 29 14 28 68 -17z m4707 -247 c21 -65 51 -146 66 -181 16 -35 39 -91 52
-125 34 -89 134 -326 153 -363 12 -23 14 -43 9 -75 -4 -24 -11 -87 -15 -139
-9 -101 -38 -230 -52 -230 -5 0 -9 6 -9 13 0 6 -12 39 -26 72 -14 33 -50 121
-79 195 -29 74 -78 195 -109 269 -30 74 -69 176 -86 228 -17 52 -49 133 -71
179 -61 130 -61 130 12 194 59 52 96 79 110 80 4 0 23 -53 45 -117z m-4526 97
c0 -5 -2 -10 -4 -10 -3 0 -8 5 -11 10 -3 6 -1 10 4 10 6 0 11 -4 11 -10z"/>
<path d="M5820 9479 c-233 -30 -253 -34 -565 -111 -88 -22 -164 -43 -170 -47
-5 -4 -58 -27 -117 -49 -104 -41 -318 -146 -328 -162 -3 -4 -47 -33 -99 -65
-95 -57 -141 -98 -385 -340 -284 -282 -488 -614 -651 -1060 -76 -208 -112
-362 -119 -510 -4 -71 -9 -183 -13 -248 -13 -247 30 -557 122 -877 31 -108
111 -315 132 -342 9 -13 53 -104 53 -112 0 -8 92 -153 131 -206 22 -30 65 -92
96 -138 31 -46 72 -95 91 -110 20 -15 83 -74 142 -132 58 -58 139 -133 180
-168 92 -77 365 -261 440 -295 188 -88 337 -145 479 -187 35 -10 80 -25 100
-34 20 -8 110 -35 201 -58 l165 -43 225 1 c245 1 369 12 518 44 230 50 302 70
457 130 55 21 132 50 170 65 39 14 95 44 125 65 30 22 74 52 98 67 168 109
280 194 391 297 42 39 93 86 114 104 22 19 35 37 31 44 -4 6 -3 8 3 5 10 -7
44 27 223 222 83 90 159 192 160 213 0 3 22 42 49 85 26 43 52 89 56 102 4 14
39 89 77 167 175 362 259 803 227 1186 -5 62 -13 163 -18 223 -19 234 -36 327
-87 482 -72 219 -293 627 -411 760 -34 37 -83 95 -110 128 -82 99 -272 278
-364 342 -30 21 -82 58 -116 83 -33 25 -70 52 -83 60 -12 8 -39 27 -59 41 -21
15 -98 58 -173 96 -130 67 -254 115 -418 162 -41 12 -102 30 -135 41 -33 10
-87 24 -120 30 -33 7 -91 18 -129 26 -138 29 -444 41 -586 23z m505 -149 c28
-5 86 -14 130 -20 44 -6 100 -20 125 -30 25 -11 86 -29 135 -40 50 -11 99 -24
110 -30 11 -5 76 -28 145 -50 162 -54 258 -101 345 -171 38 -31 81 -60 95 -64
55 -17 187 -127 399 -331 67 -65 129 -131 137 -146 7 -14 19 -32 26 -40 111
-116 251 -348 322 -533 15 -38 31 -79 36 -90 43 -94 102 -305 124 -445 21
-131 50 -530 50 -670 -1 -123 -23 -266 -75 -494 -29 -127 -79 -291 -100 -330
-13 -24 -118 -222 -137 -260 -34 -66 -187 -285 -234 -334 -27 -29 -67 -75 -88
-101 -47 -59 -67 -79 -151 -151 -35 -30 -66 -57 -69 -60 -18 -20 -140 -117
-215 -172 -111 -80 -229 -152 -303 -185 -31 -14 -59 -28 -62 -32 -15 -21 -371
-149 -485 -174 -38 -9 -115 -21 -170 -27 -55 -6 -140 -17 -190 -25 -290 -46
-602 -20 -882 76 -65 22 -129 42 -143 45 -65 13 -110 27 -110 35 0 4 -17 11
-37 15 -21 4 -43 11 -49 15 -6 5 -51 26 -100 47 -49 20 -129 61 -177 90 -48
28 -91 52 -96 52 -5 0 -14 6 -20 14 -7 8 -49 39 -94 69 -45 31 -91 64 -102 74
-11 10 -36 31 -55 47 -107 88 -242 233 -290 311 -13 22 -61 87 -106 145 -91
117 -151 205 -182 265 -66 126 -164 373 -185 465 -55 234 -56 243 -86 582 -10
122 4 451 23 538 8 36 18 81 21 100 7 37 79 266 115 364 11 32 19 65 16 72 -3
8 -1 13 5 11 5 -1 41 68 81 153 39 85 88 181 109 212 22 31 39 59 39 62 0 7
144 211 152 214 4 2 33 36 65 75 73 91 292 311 368 368 60 46 185 126 271 174
27 15 76 42 109 60 33 19 116 50 185 70 69 20 148 46 175 56 28 11 100 31 160
45 61 13 126 28 145 33 19 5 78 21 131 34 52 14 111 28 130 30 51 8 456 -3
514 -13z m1683 -4075 c-3 -3 -9 2 -12 12 -6 14 -5 15 5 6 7 -7 10 -15 7 -18z
m-13 -45 c-3 -5 -11 -10 -16 -10 -6 0 -7 5 -4 10 3 6 11 10 16 10 6 0 7 -4 4
-10z m-155 -134 c0 -2 -8 -10 -17 -17 -16 -13 -17 -12 -4 4 13 16 21 21 21 13z
m4 -34 c2 -4 -5 -9 -17 -9 -17 -2 -19 0 -7 7 18 12 18 12 24 2z"/>
<path d="M5770 9269 c-30 -4 -102 -19 -160 -33 -58 -13 -125 -27 -150 -31 -25
-3 -79 -17 -120 -30 -41 -14 -105 -32 -143 -40 -37 -9 -82 -24 -100 -33 -17
-10 -54 -26 -82 -36 -27 -11 -55 -23 -61 -27 -16 -13 -128 -69 -137 -69 -10 0
-77 -44 -168 -111 -115 -84 -169 -131 -162 -142 3 -6 1 -7 -5 -3 -15 9 -84
-53 -75 -68 3 -6 3 -8 -1 -4 -5 4 -33 -14 -64 -39 -83 -66 -151 -141 -219
-241 -13 -18 -28 -38 -33 -45 -38 -44 -100 -139 -95 -147 3 -5 0 -12 -6 -16
-8 -5 -9 -3 -4 7 18 31 -13 -8 -34 -43 -13 -22 -18 -38 -11 -38 6 0 8 -5 5
-10 -4 -6 -10 -8 -15 -5 -4 3 -6 -5 -3 -17 3 -13 2 -20 -2 -16 -12 12 -35 -25
-24 -38 6 -7 0 -28 -16 -58 -14 -26 -25 -52 -25 -59 1 -22 80 114 114 193 3 8
14 27 24 41 59 88 75 111 121 174 86 115 103 136 184 220 42 45 77 87 77 93 0
7 4 12 8 12 5 0 24 15 43 33 187 180 318 273 484 342 50 21 123 53 163 71 91
43 300 95 532 134 36 6 94 17 130 25 158 36 474 37 620 2 36 -9 126 -28 200
-42 146 -29 265 -61 348 -94 29 -12 65 -21 80 -21 26 0 26 1 -12 26 -22 15
-53 30 -70 35 -17 4 -58 17 -91 29 -151 53 -397 103 -586 120 -132 11 -379 11
-459 -1z"/>
<path d="M6470 8997 c-24 -8 -40 -23 -52 -47 -19 -39 -14 -90 8 -90 10 0 13 7
9 23 -8 31 37 87 70 87 28 0 53 -22 61 -56 8 -30 -20 -240 -47 -356 -22 -94
-22 -123 0 -123 21 0 48 108 71 280 27 206 27 207 -18 255 -42 43 -49 45 -102
27z"/>
<path d="M7226 8952 c4 -15 27 -31 139 -104 11 -7 43 -31 72 -53 105 -80 140
-105 152 -105 6 0 34 -25 63 -55 28 -30 57 -55 65 -55 7 0 13 -4 13 -10 0 -18
187 -202 194 -191 11 16 -2 31 -21 24 -11 -4 -14 -3 -9 6 5 7 -11 34 -39 69
-41 49 -80 87 -230 221 -16 15 -64 54 -105 86 -41 33 -77 62 -80 65 -42 42
-142 102 -192 114 -21 5 -25 3 -22 -12z"/>
<path d="M5217 8883 c-26 -7 -16 -37 13 -41 24 -3 50 -26 50 -44 0 -5 -20 -17
-45 -28 -27 -12 -50 -30 -57 -45 -6 -14 -23 -28 -37 -31 -51 -11 -59 -15 -86
-38 -61 -52 -39 -195 44 -287 37 -41 53 -51 81 -52 53 -3 50 23 -7 53 -40 21
-53 36 -80 90 -49 98 -42 160 18 174 26 6 26 4 32 -53 6 -71 29 -121 77 -173
42 -43 82 -51 100 -19 14 27 12 121 -3 148 -11 19 -26 38 -99 119 -18 20 -18
21 3 47 15 20 30 27 55 27 37 0 33 8 58 -118 30 -147 90 -192 160 -119 56 58
-20 234 -125 287 -21 11 -44 30 -50 43 -24 46 -64 70 -102 60z m178 -179 c72
-72 94 -150 55 -195 -19 -23 -20 -23 -31 -5 -9 15 -13 16 -21 5 -8 -11 -9 -10
-4 3 3 10 -4 57 -14 105 -28 126 -27 129 15 87z m-141 -153 c17 -24 31 -59 34
-86 4 -41 3 -45 -17 -45 -33 0 -74 70 -79 137 -4 52 -4 55 15 45 11 -6 32 -29
47 -51z"/>
<path d="M6439 8778 c-18 -68 -39 -171 -39 -195 0 -12 -4 -24 -8 -27 -5 -3
-56 3 -113 13 -57 11 -133 22 -168 26 l-63 7 6 30 c13 68 -37 160 -94 173 -61
13 -130 -53 -130 -124 0 -52 31 -105 64 -109 33 -4 33 11 1 50 -31 37 -32 79
-2 114 19 22 28 25 55 19 34 -7 62 -38 62 -68 0 -10 -10 -36 -21 -59 -19 -38
-20 -43 -5 -54 9 -6 101 -25 204 -43 103 -17 199 -33 213 -37 25 -6 26 -3 49
88 12 51 25 126 28 166 4 61 2 72 -11 72 -11 0 -20 -15 -28 -42z"/>
<path d="M5637 8604 c-15 -15 -6 -42 16 -48 23 -6 51 18 44 39 -4 12 -50 19
-60 9z"/>
<path d="M6991 8516 c-38 -14 -78 -55 -87 -91 -10 -38 3 -75 26 -75 17 0 20 7
20 39 0 53 31 91 75 91 68 0 92 -78 36 -120 -54 -41 -54 -40 -35 -61 9 -10 46
-40 80 -65 l64 -47 0 -53 c0 -66 13 -101 43 -115 45 -20 81 9 163 135 38 58
26 77 -15 23 -37 -50 -44 -50 -96 -4 l-34 30 20 29 c24 33 60 53 112 63 69 13
117 -25 117 -93 0 -34 -34 -129 -58 -162 -28 -37 -81 -61 -124 -56 -39 4 -50
-8 -26 -32 30 -30 143 6 184 59 16 21 52 117 63 169 18 83 -38 160 -117 160
-54 0 -116 -29 -158 -75 l-41 -45 -61 46 c-34 25 -62 48 -62 51 0 3 9 17 19
32 41 57 39 110 -5 154 -29 29 -51 32 -103 13z m273 -399 c31 -27 27 -60 -8
-55 -33 5 -59 78 -27 78 4 0 20 -10 35 -23z"/>
<path d="M6721 8493 c-12 -24 1 -46 25 -41 13 2 19 12 19 28 0 30 -30 39 -44
13z"/>
<path d="M4780 8477 c-79 -40 -76 -204 5 -292 13 -14 22 -25 19 -25 -3 0 2 -7
10 -16 24 -24 19 -47 -17 -82 -39 -38 -54 -40 -68 -8 -24 52 -93 60 -141 17
-29 -26 -33 -35 -32 -77 1 -40 6 -52 33 -76 22 -20 41 -28 59 -26 42 5 40 34
-5 55 -27 13 -40 27 -46 50 -14 48 -4 63 41 63 49 0 72 -17 81 -60 3 -18 12
-35 19 -38 6 -2 39 22 72 54 l60 57 39 -11 c52 -16 72 -15 99 7 24 21 28 51
10 84 -7 12 -12 36 -12 52 -1 26 -4 30 -28 27 -19 -2 -28 3 -32 16 -6 17 -40
52 -89 91 -33 26 -16 -5 33 -59 27 -30 50 -60 50 -66 0 -6 -11 -23 -25 -38
-20 -21 -29 -25 -43 -17 -48 26 -121 185 -108 235 3 14 20 31 41 40 29 14 42
15 77 6 56 -15 81 -39 134 -130 35 -60 44 -84 44 -122 0 -41 3 -48 19 -48 25
0 34 30 26 82 -18 106 -113 236 -189 260 -36 11 -110 8 -136 -5z m198 -344
c-2 -18 -10 -29 -22 -31 -30 -6 -38 12 -16 36 28 30 42 28 38 -5z"/>
<path d="M5840 8383 c-19 -2 -101 -17 -181 -33 -122 -25 -163 -38 -250 -81
-57 -28 -115 -59 -129 -69 -14 -9 -36 -21 -49 -25 -93 -29 -396 -293 -527
-462 -106 -134 -230 -402 -262 -563 -34 -171 -44 -236 -49 -333 -5 -97 -4
-107 10 -101 10 3 17 10 17 15 0 5 6 9 13 9 9 0 17 33 25 113 34 308 52 380
143 558 116 228 175 316 283 424 195 194 261 242 503 366 124 65 182 89 208
89 21 0 63 7 94 15 54 14 164 30 281 42 83 8 291 -14 415 -43 61 -14 126 -30
145 -34 56 -13 141 -48 164 -67 12 -10 37 -27 56 -37 136 -72 241 -154 374
-290 132 -134 198 -225 273 -376 106 -215 139 -330 169 -594 30 -264 -4 -537
-92 -745 -115 -273 -220 -441 -348 -558 -35 -31 -52 -53 -44 -56 9 -3 7 -10
-7 -22 -11 -9 -13 -13 -5 -9 24 12 122 96 150 128 82 95 170 230 240 368 44
86 80 165 80 175 0 10 9 41 19 69 28 74 49 202 62 392 11 146 10 181 -5 280
-9 62 -28 152 -42 200 -14 48 -32 111 -40 140 -8 29 -26 73 -39 99 -14 25 -25
50 -25 56 0 30 -149 290 -185 322 -6 6 -24 28 -40 50 -107 150 -422 400 -585
466 -240 95 -591 148 -820 122z m1727 -2000 c-3 -10 -5 -4 -5 12 0 17 2 24 5
18 2 -7 2 -21 0 -30z m-447 -818 c-7 -8 -17 -15 -23 -15 -5 0 -2 9 8 20 21 23
35 19 15 -5z"/>
<path d="M7975 8289 c13 -40 47 -89 57 -83 6 4 8 1 6 -7 -3 -8 8 -31 24 -51
16 -21 40 -63 52 -95 13 -32 31 -71 40 -88 39 -73 110 -247 160 -397 44 -132
58 -188 71 -293 8 -71 20 -167 26 -212 24 -163 -6 -625 -50 -793 -5 -19 -25
-97 -45 -173 -20 -76 -45 -161 -56 -189 -10 -28 -16 -56 -13 -61 3 -6 1 -7 -5
-3 -8 4 -12 0 -12 -11 0 -24 -84 -187 -146 -284 -104 -162 -244 -336 -374
-464 -169 -167 -151 -150 -255 -231 -118 -93 -165 -124 -255 -170 -76 -39 -81
-41 -102 -43 -8 -1 -9 -4 -2 -11 7 -7 38 3 95 30 93 45 88 42 153 88 194 139
504 431 652 616 104 130 190 267 224 357 18 46 49 127 71 181 40 101 111 347
128 445 5 32 18 101 27 153 30 160 21 460 -22 780 -18 132 -18 131 -113 426
-39 121 -71 224 -71 228 0 5 -16 30 -35 57 -19 26 -41 65 -50 85 -8 21 -37 60
-63 88 -27 28 -61 72 -76 99 -29 48 -53 64 -41 26z"/>
<path d="M5830 8135 c-133 -13 -183 -24 -227 -53 -13 -8 -23 -11 -23 -8 0 3
-27 -7 -60 -24 -33 -16 -68 -30 -78 -30 -10 0 -28 -9 -40 -20 -12 -11 -28 -20
-36 -20 -8 0 -21 -8 -28 -17 -7 -10 -22 -20 -33 -21 -23 -5 -111 -76 -126
-103 -5 -11 -17 -19 -25 -19 -8 0 -12 -4 -9 -10 3 -5 -2 -10 -13 -10 -22 0
-55 -33 -45 -45 5 -4 2 -5 -4 -1 -8 4 -32 -14 -65 -50 -56 -60 -190 -248 -213
-299 -112 -247 -135 -322 -166 -539 -24 -175 36 -521 124 -706 129 -271 422
-568 662 -670 27 -12 63 -28 80 -36 16 -7 73 -22 125 -33 52 -11 124 -27 160
-35 145 -33 260 -31 494 10 170 30 246 61 531 222 137 77 274 215 371 376 20
34 53 85 72 114 94 139 154 454 139 732 -11 194 -73 391 -193 605 -21 39 -47
81 -58 95 -49 61 -291 292 -343 326 -32 21 -67 46 -78 57 -32 30 -276 145
-320 152 -29 4 -35 3 -20 -4 19 -9 19 -10 -2 -10 -38 -1 -26 -18 25 -34 79
-26 252 -114 327 -167 76 -53 248 -215 311 -294 110 -136 174 -253 229 -418
36 -108 61 -253 51 -294 -4 -13 -1 -26 5 -30 9 -5 10 -40 5 -123 -16 -269 -62
-455 -153 -613 -26 -45 -51 -86 -56 -89 -5 -3 -8 -10 -6 -14 8 -23 -232 -277
-305 -322 -22 -14 -43 -29 -46 -33 -12 -17 -84 -60 -101 -60 -11 0 -19 -5 -19
-11 0 -5 -4 -7 -10 -4 -5 3 -22 0 -37 -9 -48 -25 -95 -44 -203 -79 -152 -51
-211 -62 -345 -62 -66 0 -127 -4 -136 -8 -10 -5 -21 -2 -29 8 -7 8 -25 15 -41
15 -16 0 -88 14 -161 32 -121 29 -245 80 -298 123 -8 6 -46 29 -85 50 -115 61
-250 183 -333 297 -158 218 -182 266 -237 474 -35 136 -45 257 -34 416 13 190
27 270 60 352 16 39 43 105 59 147 54 137 214 374 305 451 33 28 74 65 90 82
50 52 158 117 250 151 28 10 55 22 60 26 20 14 192 58 268 68 143 20 321 14
426 -13 88 -23 128 -25 115 -5 -3 5 3 9 13 10 36 2 -85 29 -192 44 -171 23
-182 24 -325 10z m-1128 -1057 c-8 -8 -9 -4 -5 13 4 13 8 18 11 10 2 -7 -1
-18 -6 -23z"/>
<path d="M7595 7995 c-91 -44 -163 -136 -149 -191 9 -35 49 -30 49 7 0 72 111
163 202 163 67 1 80 -11 65 -62 -15 -48 -52 -90 -122 -134 -71 -45 -94 -68
-81 -81 9 -9 99 41 162 92 24 19 38 22 70 18 76 -10 102 -65 55 -112 -13 -13
-49 -38 -79 -55 -130 -73 -185 -187 -117 -244 53 -44 101 -51 184 -25 78 25
130 65 152 116 19 44 18 77 -4 96 -23 21 -42 22 -42 2 0 -8 5 -15 10 -15 17 0
11 -55 -9 -77 -52 -55 -125 -79 -200 -66 -50 9 -67 28 -57 66 6 23 31 47 122
112 86 62 114 100 114 155 0 39 -45 88 -89 96 -34 7 -36 11 -21 50 14 37 -3
88 -36 103 -42 19 -124 13 -179 -14z"/>
<path d="M4060 7913 c-51 -65 23 -197 95 -169 21 8 19 26 -3 26 -32 0 -62 29
-62 60 0 47 9 60 44 60 35 0 55 -12 136 -80 60 -51 166 -119 219 -140 30 -12
35 -12 47 5 8 10 14 21 14 24 0 3 -38 27 -84 53 -46 26 -117 69 -156 95 -153
102 -210 117 -250 66z"/>
<path d="M3831 7832 c-6 -12 -11 -27 -11 -34 1 -7 8 0 16 15 9 16 13 31 11 34
-3 2 -10 -4 -16 -15z"/>
<path d="M4560 7811 c0 -26 17 -36 36 -21 11 10 12 16 3 26 -17 20 -39 17 -39
-5z"/>
<path d="M3802 7755 c-17 -37 -14 -45 4 -12 9 16 14 31 11 33 -2 2 -9 -7 -15
-21z"/>
<path d="M4198 7733 c-4 -24 29 -50 130 -104 76 -40 82 -46 76 -69 -11 -49
-24 -54 -58 -22 -41 39 -96 56 -159 49 -62 -8 -95 -29 -114 -74 -20 -48 -10
-95 30 -140 75 -86 221 -100 239 -24 2 12 -12 14 -78 12 -77 -3 -84 -1 -114
26 -22 20 -33 40 -37 69 -5 36 -2 44 23 68 23 21 39 26 77 26 65 0 108 -20
147 -69 27 -33 36 -39 51 -30 11 5 19 16 19 23 0 8 14 40 30 71 35 67 35 68
-60 111 -30 14 -85 41 -123 60 -37 19 -69 34 -71 34 -3 0 -6 -8 -8 -17z"/>
<path d="M5728 7610 c-61 -18 -124 -62 -154 -108 -51 -75 -52 -81 -70 -251
-19 -191 -17 -710 3 -747 17 -30 129 -144 142 -144 16 0 57 70 74 126 8 27 23
64 32 82 l16 32 207 2 c114 1 226 2 249 2 35 1 43 -2 43 -17 0 -37 116 -231
132 -221 29 18 94 101 100 127 3 16 2 217 -3 445 -7 333 -12 423 -25 461 -51
151 -213 248 -332 198 -54 -23 -133 -82 -138 -104 -9 -32 -17 -29 -55 22 -34
44 -100 85 -138 85 -11 0 -23 5 -26 10 -7 11 -19 12 -57 0z m152 -96 c83 -78
80 -64 80 -404 l0 -300 -192 2 -193 3 1 260 c0 149 5 284 12 317 23 116 98
183 194 175 39 -3 54 -11 98 -53z m400 26 c20 -6 51 -27 72 -52 63 -70 69
-102 75 -378 5 -249 -1 -319 -28 -310 -8 2 -93 6 -190 8 l-177 4 -7 272 c-7
265 -7 275 14 332 27 72 37 86 81 113 38 23 102 28 160 11z m40 -788 l105 3 3
-51 3 -51 -187 5 c-151 4 -188 2 -195 -9 -6 -9 -9 8 -9 47 0 33 2 63 5 65 2 3
42 1 87 -3 46 -5 130 -7 188 -6z m-360 -43 l0 -49 -188 0 c-104 0 -191 2 -193
4 -2 3 -3 25 -1 50 l4 46 189 -1 189 -2 0 -48z"/>
<path d="M3688 7522 c-14 -22 -21 -50 -20 -79 0 -29 -5 -46 -13 -50 -12 -4
-42 -82 -59 -153 -30 -125 -42 -572 -18 -675 9 -37 10 -35 11 35 1 96 29 467
41 545 16 109 42 219 75 316 25 74 30 96 19 96 -8 0 -24 -16 -36 -35z m-88
-612 c0 -5 -2 -10 -4 -10 -3 0 -8 5 -11 10 -3 6 -1 10 4 10 6 0 11 -4 11 -10z"/>
<path d="M8064 7430 c-79 -32 -112 -184 -51 -240 46 -43 138 -14 136 44 0 29
-1 30 -11 9 -14 -30 -48 -29 -76 0 -46 49 -15 157 45 157 26 0 31 25 7 34 -19
7 -23 7 -50 -4z"/>
<path d="M4234 7195 c-7 -18 12 -45 32 -45 18 0 26 17 19 40 -7 23 -43 27 -51
5z"/>
<path d="M4048 7091 c-79 -16 -128 -74 -128 -154 0 -59 17 -93 69 -140 40 -36
71 -49 120 -51 29 -1 36 -20 26 -72 -5 -32 -9 -34 -45 -34 -27 0 -48 -8 -69
-26 -27 -22 -31 -32 -31 -74 0 -42 4 -52 35 -79 40 -34 71 -39 115 -16 31 16
39 46 21 74 -7 11 -10 9 -16 -8 -3 -11 -12 -21 -18 -22 -32 -3 -64 4 -79 18
-45 40 6 96 82 91 l45 -3 2 35 c9 117 14 140 33 140 11 0 31 5 45 12 21 9 25
18 25 53 0 66 -57 105 -152 105 -32 0 -38 -3 -38 -21 0 -14 10 -24 31 -32 23
-9 29 -16 25 -32 -3 -11 -6 -26 -6 -33 0 -8 -7 -11 -17 -8 -10 3 -37 10 -60
16 -64 16 -92 47 -94 104 -3 62 24 91 97 106 72 15 149 -6 205 -57 34 -31 40
-42 37 -69 -2 -18 0 -33 5 -34 42 -2 47 1 47 26 0 108 -176 212 -312 185z
m202 -237 c0 -8 -32 -33 -42 -34 -5 0 -8 9 -8 20 0 15 7 20 25 20 14 0 25 -3
25 -6z"/>
<path d="M4397 6566 c3 -38 6 -79 8 -90 2 -12 6 -42 10 -68 14 -106 145 -441
201 -515 55 -75 177 -213 182 -208 7 7 32 -15 32 -27 0 -6 -7 -5 -15 2 -8 7
-15 8 -15 3 0 -11 174 -174 245 -230 28 -22 65 -45 84 -51 18 -7 54 -25 80
-40 85 -53 382 -159 501 -179 l25 -4 -23 13 c-12 8 -20 17 -16 21 3 3 -7 9
-22 12 -16 4 -41 11 -56 17 -15 5 -43 10 -62 11 -20 1 -36 4 -36 8 0 4 -10 11
-22 14 -13 4 -65 22 -115 41 -51 20 -98 32 -104 28 -8 -4 -9 -3 -5 4 4 7 2 12
-4 12 -6 0 -18 7 -27 16 -9 8 -23 12 -31 9 -9 -3 -13 -3 -9 1 4 4 -13 21 -37
38 -24 17 -72 51 -106 75 -35 24 -77 57 -93 73 -23 21 -33 25 -38 16 -6 -10
-15 -6 -36 15 -15 15 -22 27 -15 27 7 0 10 5 6 11 -5 8 -8 8 -13 0 -5 -8 -14
-4 -27 10 -17 20 -17 22 -1 16 17 -6 17 -6 0 18 -10 13 -21 25 -25 25 -5 0 -8
8 -9 18 0 16 -1 16 -7 -1 -7 -16 -10 -14 -31 14 -19 26 -21 33 -10 41 11 8 10
8 -4 4 -10 -3 -15 -2 -12 4 6 9 -19 51 -66 111 -15 19 -43 68 -64 109 -20 41
-41 84 -47 95 -6 10 -31 78 -55 150 -32 95 -48 161 -57 245 -8 63 -14 109 -15
101 -1 -11 -4 -11 -16 -1 -12 10 -15 10 -16 -1 -1 -8 -5 2 -10 21 -5 23 -6 12
-2 -34z m1100 -1322 c-3 -3 -12 -4 -19 -1 -8 3 -5 6 6 6 11 1 17 -2 13 -5z
m160 -50 c-3 -3 -12 -4 -19 -1 -8 3 -5 6 6 6 11 1 17 -2 13 -5z"/>
<path d="M6041 6344 c-24 -20 -31 -34 -31 -62 0 -35 45 -126 58 -118 4 2 7 -6
8 -17 0 -12 2 -35 5 -52 l4 -30 -95 0 -95 0 4 45 c3 42 -14 111 -47 193 -24
59 -82 64 -103 10 -13 -34 1 -81 38 -131 14 -18 27 -51 30 -73 l6 -39 -48 0
c-73 0 -123 -19 -172 -68 -45 -43 -45 -44 -41 -99 4 -49 10 -61 41 -90 46 -42
79 -43 106 -4 26 36 70 47 108 29 40 -19 40 -48 -2 -91 -42 -43 -44 -60 -9
-92 33 -31 96 -39 296 -40 135 0 160 2 174 17 16 15 16 22 4 58 -7 22 -18 40
-24 40 -19 0 -47 40 -44 63 5 36 48 44 102 19 25 -12 46 -29 46 -36 0 -28 19
-26 76 5 61 35 84 71 84 131 0 65 -71 133 -158 153 -18 3 -32 10 -32 13 0 4
12 27 25 51 49 85 41 209 -14 224 -37 9 -50 -21 -49 -113 1 -69 -2 -94 -21
-132 -21 -47 -23 -48 -66 -48 -45 0 -45 0 -45 35 0 40 -32 109 -56 123 -16 9
-16 32 0 117 3 17 3 24 0 18 -3 -7 -13 -13 -21 -13 -13 0 -13 3 -3 15 20 25
-6 17 -39 -11z m79 -175 c0 -6 -4 -7 -10 -4 -5 3 -10 11 -10 16 0 6 5 7 10 4
6 -3 10 -11 10 -16z"/>
<path d="M3726 5865 c-17 -46 161 -362 269 -476 25 -26 45 -52 45 -58 0 -6 5
-11 10 -11 17 0 11 32 -9 54 -29 32 -88 116 -112 161 -12 22 -27 47 -34 55 -7
8 -41 69 -75 135 -80 153 -86 161 -94 140z"/>
<path d="M4255 5851 c-42 -19 -88 -70 -98 -110 -9 -35 8 -66 45 -84 31 -14 34
-20 30 -50 -3 -26 2 -40 19 -56 12 -11 30 -21 39 -21 12 0 15 -9 12 -40 -5
-47 8 -66 53 -79 57 -16 122 7 177 61 51 50 55 66 37 131 -8 32 -7 43 9 70 10
18 25 46 31 64 12 28 11 34 -7 54 -18 19 -31 21 -95 21 -70 -1 -76 0 -101 28
-21 25 -34 30 -69 30 -23 0 -60 -9 -82 -19z m125 -51 c0 -9 -29 -40 -65 -68
-36 -29 -65 -57 -65 -63 0 -6 -10 -9 -22 -7 -30 4 -35 43 -12 86 10 18 42 48
73 67 51 32 56 34 73 18 10 -9 18 -24 18 -33z m186 -44 c6 -17 -22 -76 -36
-76 -12 0 -50 59 -50 78 0 18 79 16 86 -2z m-101 -81 c26 -33 18 -54 -32 -86
-38 -24 -57 -29 -93 -27 -42 3 -45 5 -48 35 -3 35 39 91 93 125 33 20 26 24
80 -47z m63 -121 c2 -22 -6 -40 -31 -68 -30 -35 -39 -40 -90 -44 l-57 -4 0 41
c0 36 3 41 28 47 41 8 101 35 114 51 17 20 33 10 36 -23z"/>
<path d="M7715 5703 c-36 -20 -52 -39 -60 -75 -12 -50 49 -118 105 -118 53 0
110 61 110 117 0 33 -6 43 -40 64 -41 26 -82 30 -115 12z m95 -91 c0 -33 -16
-52 -45 -52 -12 0 -26 5 -33 12 -17 17 -15 64 4 82 14 14 18 14 45 1 21 -12
29 -23 29 -43z"/>
<path d="M7440 5629 c0 -25 74 -95 195 -183 20 -14 20 -15 -10 -47 -44 -48
-199 -199 -205 -199 -3 0 -25 18 -50 40 l-45 39 48 46 c26 25 47 52 47 59 0
23 -66 77 -103 83 -31 5 -40 1 -67 -25 -61 -61 -27 -146 104 -261 33 -27 45
-32 73 -28 27 5 33 3 33 -12 0 -27 27 -45 66 -45 45 0 69 24 60 59 -6 24 -11
27 -41 23 -19 -2 -35 -1 -35 4 0 13 33 25 88 33 58 8 107 41 123 82 11 30 -6
67 -27 59 -9 -3 -12 -1 -9 4 3 6 -1 10 -9 10 -21 0 -20 6 5 42 l21 29 -46 45
c-60 57 -194 164 -207 164 -5 0 -9 -9 -9 -21z m-90 -228 l35 -30 -38 -38 -38
-38 -25 30 c-26 32 -31 74 -12 93 19 19 41 14 78 -17z m324 -64 c21 -15 13
-39 -21 -68 -22 -20 -113 -32 -112 -15 1 12 95 96 107 96 5 0 16 -6 26 -13z
m-126 -204 c5 -18 -10 -16 -34 2 -18 15 -18 15 5 13 14 -2 26 -9 29 -15z"/>
<path d="M4660 5515 c-93 -29 -169 -131 -142 -190 17 -36 42 -32 42 5 0 47 23
93 63 123 107 81 176 12 82 -83 -25 -25 -43 -51 -40 -58 3 -7 1 -11 -4 -8 -11
7 -44 -41 -39 -56 2 -6 39 21 81 61 57 53 84 71 105 71 31 0 72 -32 72 -56 0
-25 -30 -75 -64 -107 -17 -16 -25 -26 -17 -22 9 5 12 4 7 -3 -4 -7 -13 -12
-20 -12 -16 0 -62 -48 -53 -56 9 -9 60 33 117 98 45 52 57 59 81 56 16 -3 29
-1 29 4 0 5 5 6 11 2 7 -4 10 -1 7 7 -2 8 -17 15 -31 17 -19 2 -27 9 -27 23 0
10 -4 19 -10 19 -5 0 -10 6 -10 13 0 25 -36 47 -74 47 -34 0 -38 2 -33 21 8
31 -11 75 -39 88 -30 14 -37 13 -94 -4z"/>
<path d="M7031 5517 c-8 -10 -7 -14 2 -14 8 0 14 6 14 14 0 7 -1 13 -2 13 -2
0 -8 -6 -14 -13z"/>
<path d="M6987 5486 c-17 -13 -16 -14 6 -12 15 0 23 6 20 14 -6 14 -4 15 -26
-2z"/>
<path d="M6939 5419 l-24 -20 28 17 c15 9 27 18 27 20 0 8 -8 4 -31 -17z"/>
<path d="M6875 5401 c-3 -5 -2 -12 3 -15 5 -3 9 1 9 9 0 17 -3 19 -12 6z"/>
<path d="M5020 5340 c-25 -25 -16 -44 17 -35 14 3 31 1 39 -6 33 -28 6 -86
-89 -189 -23 -25 -66 -71 -94 -102 -56 -60 -64 -78 -36 -78 23 0 255 239 277
283 23 50 20 89 -9 121 -30 32 -76 35 -105 6z"/>
<path d="M7020 5298 c-33 -36 -22 -119 14 -105 11 4 15 17 14 39 -4 45 25 49
67 8 39 -38 108 -172 103 -202 -4 -32 -43 -36 -74 -7 -31 29 -51 15 -33 -23
17 -38 50 -53 80 -38 83 43 90 96 29 206 -72 131 -148 177 -200 122z"/>
<path d="M4071 5305 c0 -5 3 -16 8 -23 7 -11 9 -10 14 3 4 9 3 14 -2 10 -5 -3
-12 1 -14 7 -3 7 -6 9 -6 3z"/>
<path d="M6665 5270 c-11 -5 -31 -9 -45 -9 -38 -2 -58 -17 -42 -33 9 -9 12 -9
12 0 0 7 12 12 28 12 15 0 41 9 57 20 31 20 26 25 -10 10z"/>
<path d="M4986 5237 c-8 -45 -26 -88 -35 -84 -3 2 -17 -8 -31 -21 -14 -14 -18
-21 -10 -17 13 8 13 7 1 -8 -8 -10 -16 -15 -19 -12 -3 3 -12 -1 -20 -7 -8 -7
-31 -20 -51 -29 -35 -17 -35 -17 -9 -18 33 -1 128 57 151 92 19 30 41 110 35
129 -3 7 -8 -4 -12 -25z"/>
<path d="M4110 5248 c0 -4 6 -13 13 -20 7 -7 27 -33 44 -58 40 -59 207 -224
283 -280 19 -14 48 -37 64 -51 17 -14 49 -36 71 -49 22 -13 51 -32 65 -42 73
-55 150 -96 172 -92 13 2 17 1 10 -2 -22 -10 81 -64 135 -71 l48 -6 -27 22
c-14 11 -33 21 -41 21 -9 0 -19 5 -22 11 -4 5 -21 8 -38 5 -22 -4 -26 -3 -13
2 16 7 9 14 -45 42 -68 35 -225 140 -299 199 -24 20 -54 43 -65 51 -11 8 -74
68 -140 133 -67 66 -128 117 -138 117 -13 0 -17 5 -13 16 3 8 2 12 -4 9 -6 -3
-21 6 -35 22 -13 15 -25 25 -25 21z"/>
<path d="M6413 5203 c-12 -2 -20 -10 -17 -17 5 -13 -86 -33 -189 -42 -48 -4
-225 6 -372 21 -32 4 -35 3 -15 -4 l25 -9 -25 -2 c-35 -4 63 -18 200 -30 78
-6 142 -6 200 1 47 6 104 12 128 14 24 1 46 6 50 10 4 4 -8 5 -26 2 -18 -4
-31 -3 -28 2 3 5 27 11 53 14 26 3 49 10 51 16 2 6 13 11 25 11 11 0 18 2 16
4 -8 7 -55 13 -76 9z m-496 -59 c-3 -3 -12 -4 -19 -1 -8 3 -5 6 6 6 11 1 17
-2 13 -5z"/>
<path d="M6722 5149 c-22 -23 -32 -62 -32 -125 0 -34 -4 -44 -21 -49 -35 -12
-52 -91 -28 -138 22 -43 72 -87 99 -87 27 0 60 27 60 47 0 7 20 10 49 10 41
-2 52 2 70 23 11 14 20 30 21 36 0 6 18 11 43 10 50 -1 73 17 88 66 18 62 -14
134 -73 164 -26 13 -37 14 -74 4 -42 -12 -44 -12 -85 24 -49 41 -88 47 -117
15z m97 -81 c1 -8 -64 -38 -80 -38 -13 0 -11 74 3 88 8 8 19 5 44 -16 18 -15
33 -30 33 -34z m177 -23 c21 -22 25 -33 22 -78 -3 -44 -6 -52 -24 -55 -11 -2
-27 5 -35 14 -17 20 -50 125 -43 136 11 17 56 7 80 -17z m-126 -40 c15 -18 9
-130 -8 -147 -9 -9 -18 -7 -39 8 -26 19 -72 88 -73 107 0 9 78 46 96 47 6 0
17 -7 24 -15z m-137 -110 c49 -82 28 -135 -29 -72 -35 38 -50 77 -40 102 11
29 41 16 69 -30z"/>
<path d="M5166 5140 c-60 -30 -86 -58 -117 -127 -34 -74 -36 -116 -9 -160 25
-42 50 -42 96 0 29 26 37 42 40 77 6 55 -12 81 -55 82 -37 1 -38 4 -7 42 l23
30 16 -30 c9 -16 16 -23 17 -16 0 7 5 10 10 7 6 -4 8 -10 5 -15 -10 -16 45
-23 71 -10 29 16 51 80 31 92 -6 4 -8 8 -3 8 5 0 1 9 -9 20 -23 25 -59 25
-109 0z m97 -31 c5 -9 7 -28 3 -42 -5 -23 -12 -27 -41 -27 -49 0 -64 37 -32
78 13 17 57 11 70 -9z m-125 -141 c33 -33 -14 -127 -57 -113 -17 5 -21 14 -21
52 0 32 5 50 18 59 21 17 44 18 60 2z"/>
<path d="M5758 5153 c6 -2 18 -2 25 0 6 3 1 5 -13 5 -14 0 -19 -2 -12 -5z"/>
<path d="M5333 5049 c-38 -24 -63 -82 -63 -148 0 -40 -5 -52 -30 -74 -37 -34
-38 -54 -2 -69 15 -6 52 -22 82 -35 44 -20 58 -22 76 -12 24 13 45 71 50 142
2 29 11 58 23 74 31 38 28 96 -5 122 -34 27 -89 27 -131 0z m97 -27 c33 -27
21 -86 -23 -112 -39 -24 -96 -44 -104 -36 -3 3 -2 26 2 53 5 36 15 54 43 80
41 38 51 40 82 15z m-26 -214 c-9 -29 -20 -57 -24 -62 -9 -9 -120 31 -120 44
0 14 27 30 81 49 80 29 80 29 63 -31z"/>
<path d="M5835 5050 c-3 -5 6 -12 20 -16 18 -4 25 -13 25 -31 0 -21 -3 -23
-22 -17 -12 4 -40 7 -63 7 -22 0 -50 6 -63 15 -32 21 -106 11 -139 -19 -60
-57 -104 -200 -82 -267 7 -21 16 -32 26 -30 11 2 15 22 17 88 3 74 7 91 30
127 31 47 65 73 96 73 32 0 34 -25 7 -62 -59 -78 -73 -203 -26 -241 21 -17 23
-17 53 1 19 10 42 39 59 71 22 45 27 68 27 128 0 76 2 79 44 63 32 -12 32 -25
1 -125 -28 -92 -32 -166 -10 -185 24 -20 72 6 100 55 33 55 36 180 6 236 -11
19 -19 52 -18 71 0 20 -5 43 -12 52 -15 18 -66 22 -76 6z m-82 -168 c6 -30
-13 -125 -32 -161 -21 -39 -36 -19 -36 50 0 50 5 72 23 102 28 44 38 46 45 9z
m156 -159 c-11 -42 -34 -71 -45 -60 -10 9 13 120 32 163 l18 39 4 -50 c2 -27
-2 -69 -9 -92z"/>
<path d="M6316 4974 c-36 -37 -56 -86 -56 -136 0 -43 49 -156 77 -178 90 -71
192 51 117 139 -30 36 -78 42 -119 15 l-25 -16 0 48 c0 58 29 114 60 114 36 0
86 -27 109 -58 32 -46 57 -157 44 -193 -10 -25 -9 -31 9 -40 33 -18 43 4 43
94 0 67 -5 90 -24 127 -44 85 -91 120 -160 120 -33 0 -46 -6 -75 -36z m104
-214 c6 -12 10 -35 8 -53 -2 -24 -8 -33 -25 -35 -17 -3 -27 6 -42 37 -12 22
-18 47 -15 55 9 24 61 20 74 -4z"/>
<path d="M6021 4674 c-25 -32 -26 -47 -5 -69 27 -27 58 -15 65 25 4 19 7 29 8
21 0 -8 3 -12 6 -9 11 11 -19 58 -36 58 -10 0 -27 -12 -38 -26z"/>
<path d="M7050 4610 c-21 -7 -21 -8 -5 -9 11 0 27 4 35 9 18 11 5 11 -30 0z"/>
<path d="M6985 4580 c-16 -11 -25 -20 -20 -20 10 0 64 39 55 40 -3 0 -18 -9
-35 -20z"/>
<path d="M5117 4534 c-13 -13 5 -24 36 -24 l32 0 -29 15 c-33 17 -31 17 -39 9z"/>
<path d="M6025 4515 c-17 -13 -28 -25 -25 -28 3 -3 18 6 34 19 37 32 29 40 -9
9z"/>
<path d="M6815 4518 c-27 -11 -75 -26 -105 -34 -120 -28 -145 -36 -154 -45 -6
-5 -19 -9 -30 -9 -10 0 -17 -3 -13 -6 7 -8 115 16 149 33 15 7 37 13 48 13 12
0 36 6 53 14 38 16 106 43 127 50 10 3 8 5 -5 5 -11 0 -42 -9 -70 -21z"/>
<path d="M6263 4393 c-13 -3 -23 -9 -23 -14 0 -7 12 -8 31 -4 18 4 44 8 60 9
16 1 30 4 33 7 6 5 -72 7 -101 2z"/>
<path d="M5717 4384 c-12 -12 4 -24 34 -24 31 0 39 14 13 24 -20 8 -39 8 -47
0z"/>
<path d="M6112 4374 c10 -10 56 -12 70 -3 8 6 -3 9 -31 9 -24 0 -42 -3 -39 -6z"/>
<path d="M5940 4361 c-20 -6 -14 -9 30 -13 62 -6 90 -1 68 13 -15 10 -63 10
-98 0z"/>
<path d="M3465 5113 c-37 -9 -113 -75 -129 -112 -28 -68 -30 -97 -4 -115 12
-9 26 -16 30 -16 4 0 14 23 22 50 31 105 71 150 144 164 36 6 62 -10 62 -39 0
-8 -43 -57 -95 -109 -70 -67 -94 -97 -89 -109 3 -9 11 -17 18 -17 6 0 49 38
96 85 66 66 91 85 112 85 43 0 35 -23 -37 -101 -36 -39 -73 -85 -81 -101 -32
-61 9 -107 82 -93 75 14 186 162 164 219 -10 28 -30 35 -30 11 0 -26 -60 -113
-103 -150 -72 -61 -93 -38 -29 33 70 79 91 108 98 136 9 37 -12 74 -47 81 -19
4 -29 13 -29 25 0 10 -12 32 -26 49 -22 26 -32 31 -67 30 -23 -1 -51 -4 -62
-6z"/>
<path d="M3780 4769 c-51 -23 -92 -57 -84 -71 3 -5 0 -7 -8 -6 -7 2 -12 -2
-11 -9 2 -7 -3 -10 -10 -7 -7 2 -23 -9 -35 -26 -22 -29 -22 -31 -5 -57 10 -15
28 -37 41 -50 l22 -22 -4 25 c-3 14 -10 32 -16 39 -13 16 -1 24 78 50 59 19
74 15 49 -13 -10 -10 -17 -25 -17 -32 0 -9 5 -7 16 6 14 17 15 17 10 1 -3 -10
-6 -23 -6 -28 0 -5 -13 -9 -30 -9 -32 0 -75 -34 -65 -50 14 -22 41 -7 98 53
99 104 119 155 78 205 -23 27 -42 27 -101 1z m76 -45 c-7 -19 -85 -57 -124
-61 l-33 -4 52 55 c56 60 89 73 102 42 4 -11 6 -25 3 -32z"/>
<path d="M3971 4643 c-42 -8 -111 -61 -111 -85 0 -5 -4 -7 -9 -3 -5 3 -13 0
-17 -6 -4 -7 -3 -9 4 -5 5 3 12 2 14 -4 2 -6 27 13 56 41 29 28 58 49 65 46 7
-2 19 -17 27 -32 16 -30 12 -36 -79 -98 -46 -32 -75 -71 -44 -60 17 6 17 5 1
-14 -66 -74 63 -66 134 9 20 21 38 51 40 66 2 18 10 28 28 32 l25 6 -22 12
c-13 7 -23 21 -23 30 0 16 -50 74 -61 71 -2 -1 -15 -4 -28 -6z m25 -150 c-3
-10 -8 -30 -11 -45 -4 -16 -16 -28 -30 -32 -58 -15 -65 25 -13 69 35 29 62 33
54 8z m7 -48 c-3 -9 -8 -14 -10 -11 -3 3 -2 9 2 15 9 16 15 13 8 -4z"/>
<path d="M4105 4462 c-16 -19 -48 -55 -71 -79 -23 -23 -40 -44 -38 -46 1 -1
-14 -1 -35 1 -25 3 -41 -1 -50 -12 -22 -26 -7 -29 69 -15 65 11 74 16 104 53
32 39 61 107 54 125 -2 5 -16 -7 -33 -27z m-55 -102 c0 -5 -5 -10 -11 -10 -5
0 -7 5 -4 10 3 6 8 10 11 10 2 0 4 -4 4 -10z"/>
<path d="M7860 4483 c0 -40 20 -74 73 -126 80 -79 97 -105 97 -153 0 -47 -24
-79 -40 -54 -5 8 -11 12 -14 9 -3 -3 1 -15 10 -27 17 -25 81 -31 102 -10 18
18 14 77 -7 123 -17 38 -44 65 -136 135 -22 17 -50 52 -62 78 -16 33 -23 40
-23 25z"/>
<path d="M3816 4469 c-11 -10 -17 -21 -15 -23 7 -8 52 18 51 29 -1 17 -16 14
-36 -6z"/>
<path d="M4159 4412 c-36 -31 -76 -70 -89 -87 -13 -16 -43 -47 -67 -68 l-42
-39 -36 27 c-29 23 -38 25 -50 15 -8 -7 -15 -18 -15 -24 0 -14 80 -98 90 -94
24 9 198 182 236 235 79 110 71 120 -27 35z"/>
<path d="M8046 4435 c-22 -34 -20 -65 7 -98 26 -33 88 -47 113 -26 25 21 12
86 -25 121 -37 35 -73 36 -95 3z m94 -56 c0 -28 -11 -49 -26 -49 -20 0 -27 41
-14 75 11 29 12 29 26 11 8 -11 14 -28 14 -37z"/>
<path d="M7666 4356 c-23 -49 -20 -112 8 -173 27 -56 110 -148 126 -138 13 8
13 42 0 50 -5 3 -10 13 -10 22 0 8 -13 32 -29 52 -32 41 -64 129 -59 163 4 30
31 34 79 12 42 -18 46 -29 24 -58 -9 -12 -15 -41 -15 -70 0 -55 18 -92 66
-132 l27 -24 19 23 c11 12 27 35 35 51 33 63 -9 158 -97 222 -38 28 -54 34
-101 34 -55 0 -57 -1 -73 -34z m224 -132 c13 -38 5 -94 -13 -94 -27 0 -62 132
-40 153 11 11 41 -23 53 -59z"/>
<path d="M4452 4289 c-50 -15 -145 -115 -159 -168 -12 -49 -3 -91 21 -91 24 0
44 27 39 53 -3 13 5 43 16 65 23 45 103 112 132 112 30 0 23 -48 -16 -110 -19
-30 -41 -71 -50 -90 -9 -19 -23 -42 -32 -52 -22 -25 -10 -33 27 -18 19 8 44
34 67 69 20 31 43 67 53 81 9 14 19 33 23 43 9 24 26 21 39 -8 10 -22 7 -30
-22 -67 -37 -45 -100 -167 -100 -192 0 -19 64 -22 119 -6 69 19 151 127 151
197 0 31 -26 76 -39 68 -5 -2 -11 -23 -15 -46 -9 -56 -42 -118 -83 -156 -32
-29 -63 -43 -63 -27 0 3 17 31 39 62 75 111 86 150 55 197 -12 19 -25 25 -50
25 -24 0 -34 5 -34 15 0 23 -37 55 -62 54 -13 0 -38 -5 -56 -10z"/>
<path d="M4115 4272 c-30 -24 -37 -49 -20 -66 8 -8 15 -19 15 -25 0 -29 81
-19 102 13 9 14 0 66 -14 83 -15 18 -59 16 -83 -5z m78 -37 c5 -29 -20 -49
-47 -39 -20 8 -20 15 2 42 23 29 39 28 45 -3z"/>
<path d="M7427 4252 c-43 -47 -48 -130 -14 -225 27 -73 79 -137 113 -137 26 0
28 3 38 43 6 27 5 28 -22 23 -25 -6 -32 -2 -61 38 -38 55 -60 153 -42 192 9
21 17 25 49 22 31 -3 37 -7 40 -29 2 -14 -4 -31 -12 -39 -19 -15 -21 -41 -4
-58 17 -17 26 -15 33 8 9 27 65 27 89 1 16 -17 16 -25 6 -58 -7 -21 -19 -43
-26 -49 -11 -9 -12 -18 -4 -38 12 -33 25 -33 61 3 24 25 29 38 29 79 0 43 -5
55 -32 82 -18 18 -44 37 -59 42 -21 7 -28 18 -33 47 -5 34 -11 41 -46 55 -52
21 -83 20 -103 -2z"/>
<path d="M4192 4151 c-7 -4 -15 -17 -16 -27 -2 -12 -12 -20 -29 -22 -15 -2
-27 -8 -27 -13 0 -15 74 -10 98 7 26 18 29 49 6 58 -19 7 -16 7 -32 -3z"/>
<path d="M7218 4105 c-8 -19 -8 -28 2 -40 18 -21 29 -19 40 10 14 37 37 21 71
-50 41 -87 37 -145 -10 -130 -12 3 -21 2 -21 -4 0 -14 41 -41 61 -41 19 0 59
45 59 67 0 17 -65 150 -82 166 -53 52 -102 61 -120 22z"/>
<path d="M4788 4083 c-36 -38 -130 -226 -117 -234 25 -15 -24 -17 -56 -2 -28
13 -37 14 -50 3 -24 -20 -18 -34 25 -69 39 -31 42 -32 65 -17 13 9 29 25 35
37 7 11 19 29 27 39 9 10 38 67 64 127 63 139 65 177 7 116z"/>
<path d="M4863 4058 c-14 -7 -23 -20 -23 -35 0 -28 16 -30 25 -3 3 11 12 20
20 20 22 0 24 -37 3 -67 -10 -15 -37 -63 -59 -106 -42 -83 -66 -96 -61 -33 3
40 -4 45 -24 19 -20 -27 -18 -90 4 -97 29 -9 96 12 111 34 26 38 91 193 91
215 -1 24 -33 65 -52 64 -7 0 -23 -5 -35 -11z"/>
<path d="M7077 4016 c-31 -28 -37 -40 -37 -75 0 -40 10 -68 39 -103 11 -14 11
-21 1 -33 -18 -21 -29 -19 -40 10 -10 26 -64 65 -91 65 -8 0 -26 -11 -39 -25
-46 -49 -19 -145 40 -145 34 0 39 14 10 30 -46 24 -50 100 -5 100 31 0 53 -28
57 -75 3 -36 6 -40 29 -38 35 2 119 62 119 85 0 10 -4 18 -9 18 -21 0 -53 71
-53 116 0 66 32 84 73 42 32 -35 41 -67 37 -138 -3 -60 -1 -65 19 -68 30 -4
53 33 53 89 0 40 -6 54 -38 93 -34 41 -97 86 -120 86 -4 0 -25 -15 -45 -34z"/>
<path d="M5002 3982 c-44 -46 -59 -68 -98 -139 -43 -79 -50 -139 -20 -172 25
-27 47 -27 75 3 22 23 24 23 51 8 26 -15 30 -15 48 1 26 24 29 22 35 -24 3
-22 7 -43 10 -45 15 -15 85 12 118 45 39 39 59 102 59 185 0 45 -30 86 -62 86
-31 0 -98 -60 -120 -108 -32 -72 -35 -77 -44 -77 -37 0 12 158 57 184 16 9 29
22 29 29 0 16 -4 15 -48 -7 -63 -32 -101 -91 -111 -175 -4 -37 -11 -52 -23
-54 -30 -6 -21 44 24 137 73 149 79 185 20 123z m211 -138 c-4 -55 -13 -73
-44 -88 l-32 -16 6 40 c6 44 43 103 61 97 6 -2 10 -17 9 -33z m-27 -140 c-3
-9 -6 -20 -6 -25 0 -5 -7 -9 -15 -9 -18 0 -20 21 -3 38 17 17 31 15 24 -4z"/>
<path d="M6733 3945 c-29 -20 -43 -73 -43 -158 0 -74 18 -130 47 -145 23 -13
102 1 114 19 5 8 9 31 9 52 0 48 -31 66 -85 50 -32 -10 -34 -10 -44 20 -6 16
-11 32 -11 33 0 2 17 4 38 4 48 0 62 14 62 61 0 29 -6 43 -26 58 -32 25 -34
25 -61 6z m55 -49 c5 -25 -12 -39 -37 -31 -26 8 -27 30 -3 44 22 13 36 9 40
-13z m32 -191 c0 -27 -26 -35 -48 -13 -9 9 -7 14 6 24 26 21 42 16 42 -11z"/>
<path d="M6546 3884 c-28 -27 -17 -76 11 -52 27 22 52 -20 62 -102 8 -62 7
-79 -5 -98 -11 -16 -22 -22 -35 -19 -15 4 -19 1 -17 -11 5 -26 69 -28 92 -3
22 24 34 132 18 164 -5 12 -16 37 -23 56 -13 35 -56 81 -76 81 -6 0 -19 -7
-27 -16z"/>
<path d="M5337 3842 c-39 -55 -51 -120 -36 -193 16 -72 38 -90 112 -88 34 0
79 -2 99 -6 31 -6 42 -3 71 19 39 30 67 89 67 139 0 40 -43 132 -65 141 -29
11 -38 6 -23 -11 9 -11 18 -48 22 -93 5 -65 3 -80 -14 -108 -20 -33 -64 -61
-77 -48 -4 4 -2 16 5 27 44 70 54 99 47 141 -13 80 -64 131 -106 105 -14 -9
-22 -8 -37 6 -10 9 -21 17 -24 17 -4 0 -22 -22 -41 -48z m141 -15 c13 -15 4
-127 -9 -127 -5 0 -11 12 -15 28 -3 15 -10 42 -16 59 -5 18 -7 37 -3 43 9 14
30 13 43 -3z m-75 -114 c2 -54 3 -100 0 -103 -2 -2 -12 1 -21 7 -13 8 -17 24
-16 69 2 67 13 124 24 124 4 0 10 -44 13 -97z"/>
<path d="M6394 3868 c-4 -6 5 -20 19 -32 13 -11 30 -36 36 -55 14 -44 14 -123
-1 -156 -23 -51 -41 -17 -58 110 -7 60 -13 74 -40 97 -39 36 -57 35 -97 -4
l-33 -32 -23 22 c-33 32 -67 27 -115 -14 l-42 -36 0 -79 c0 -109 36 -199 80
-199 10 0 28 9 41 19 l24 19 -26 21 c-49 38 -70 182 -35 236 10 15 21 23 25
19 15 -17 60 -140 66 -179 14 -94 15 -96 43 -93 26 3 27 5 25 66 -1 35 -6 77
-12 93 -16 45 -4 89 24 89 26 0 35 -17 35 -69 0 -95 53 -171 120 -171 28 0 34
5 53 48 51 111 8 263 -80 285 -13 3 -26 1 -29 -5z"/>
<path d="M5836 3675 c-8 -21 2 -42 24 -48 13 -3 17 -11 13 -26 -3 -12 -9 -21
-14 -21 -5 0 -9 -5 -9 -11 0 -6 10 -9 22 -7 15 2 26 15 36 47 14 43 14 45 -8
63 -27 22 -56 23 -64 3z"/>
<path d="M5677 3650 c-31 -36 -41 -64 -33 -95 9 -35 45 -39 77 -9 43 41 43
100 0 123 -16 9 -24 6 -44 -19z m41 -58 c3 -26 0 -32 -16 -32 -25 0 -35 25
-21 51 15 28 33 18 37 -19z"/>
</g>
</svg>
